<?xml version="1.0" standalone="no"?>
<!DOCTYPE svg PUBLIC "-//W3C//DTD SVG 1.1//EN" "http://www.w3.org/Graphics/SVG/1.1/DTD/svg11.dtd">
<svg xmlns="http://www.w3.org/2000/svg">
<metadata>Copyright (C) 2015 by original authors @ fontello.com</metadata>
<defs>
<font id="fontello" horiz-adv-x="1000" >
<font-face font-family="fontello" font-weight="400" font-stretch="normal" units-per-em="1000" ascent="850" descent="-150" />
<missing-glyph horiz-adv-x="1000" />
<glyph glyph-name="2427" unicode="&#xe800;" d="m239 65c31 0 59 11 83 29 30-24 68-38 108-38 47 0 90 18 123 51 67 68 66 178-2 245-32 32-76 50-121 50-20 0-39-4-58-10v160c0 74-60 133-133 133-73 0-133-59-133-133v-354c0-73 60-133 133-133z m-91 133v162h170c-4-3-8-6-12-10-61-62-65-158-14-226-15-11-33-17-53-17-50 0-91 41-91 91z m375-61c-44-45-118-50-169-15l181 184c37-51 34-123-12-169z m-18 198l-181-183c-37 50-33 122 12 169 25 25 58 39 94 39 27 0 53-9 75-25z m-266 308c50 0 91-41 91-91v-150h-182v150c0 51 41 91 91 91z m655-349c0-12-9-21-21-21h-147l-119-273c-4-8-11-13-20-13h-450c-12 0-22 10-22 22 0 11 10 21 22 21h436l120 272c3 8 11 13 19 13h161c12 0 21-9 21-21z m-599-384c0-33-27-60-60-60-34 0-61 27-61 60 0 34 27 60 61 60 33 0 60-26 60-60z m214 0c0-33-27-60-60-60-33 0-60 27-60 60 0 34 27 60 60 60 33 0 60-26 60-60z m123 692h-169v0c0 23 5 42 17 58 11 16 33 36 65 58 14 10 24 19 30 27 5 8 8 17 8 28 0 11-3 19-9 26-7 7-15 10-26 10-11 0-19-4-26-12-6-9-9-20-8-35h-48c-1 27 6 49 21 64 15 16 36 24 62 24 24 0 44-7 60-22 15-14 23-33 23-56 0-19-5-34-13-47-9-12-26-26-50-41-22-15-37-27-45-39l-1 0h109v-43z m123 0h48v54h28v39h-28v155h-27-27l-92-151v-21-22h98v-54h0z m-62 93l2 4 60 100v-104h-62z m-138-261v58h-50v-58h-13-14v128h14 13v-48h50v48h13 14v-128h-14-13z m158 92c0 11-4 19-11 26-8 6-17 10-30 10h-51-13v-128h13 14v50h26c8 0 13-1 17-3 3-3 5-7 5-13l0-11c0-5 0-10 1-15 0-4 1-7 2-8h29v3c-2 1-4 3-4 4-1 2-1 5-2 9l0 21c-1 11-4 18-12 22-1 1-2 2-4 2 3 1 5 3 8 4 8 6 12 15 12 27z m-32-16c-3-3-8-4-15-4h-31v34h32c6 0 11-2 15-5 3-2 4-7 4-12 0-6-1-10-5-13z m82 29c-4-3-6-7-6-13 0-4 2-7 6-9 4-2 13-4 25-7 19-4 31-9 38-15 6-5 9-14 9-26 0-12-4-21-14-28-9-7-22-11-38-11-16 0-29 4-38 11-9 8-14 19-15 32h26c0-6 3-12 7-15 5-4 11-6 20-6 8 0 15 2 20 4 4 3 7 7 7 12 0 5-2 8-5 10-4 3-11 5-22 8-20 4-34 9-41 14-6 6-10 14-10 25 0 12 5 22 14 29 9 7 21 11 36 11 14 0 26-4 35-11 9-8 14-18 15-31h-26c-1 6-3 11-8 15-5 3-11 5-19 5-7 0-12-1-16-4z" horiz-adv-x="1000" />
<glyph glyph-name="test-tube1" unicode="&#xe801;" d="m625 517v291h42v42h-42-125-125-42v-42h42v-291c0 0-292-417-292-542s125-125 125-125h292 292c0 0 125 0 125 125s-292 542-292 542z m167-625h-292-292c-14 0-83 4-83 83 0 82 174 361 284 518l8 11v13 291h166v-291-13l8-11c110-157 284-436 284-518 0-76-64-83-83-83z m-417 157c0-23-19-42-42-42s-41 19-41 42 18 42 41 42 42-19 42-42z m249-59c0-31-25-56-56-56s-56 25-56 56 25 57 56 57 56-25 56-57z m-100 75c0-29-23-52-52-52-29 0-53 23-53 52s24 53 53 53 52-24 52-53z m-62 67c-43 0-78 35-78 78s35 78 78 78c43 0 78-35 78-78s-35-78-78-78z m117 73c0 23 19 41 42 41s41-18 41-41-18-42-41-42c-23 0-42 18-42 42z m46-100c0-15-13-27-28-27s-27 12-27 27 12 28 27 28 28-12 28-28z" horiz-adv-x="1000" />
<glyph glyph-name="clinic3" unicode="&#xe802;" d="m800 815h-168v12c0 13-10 23-23 23h-218c-13 0-23-10-23-23v-12h-167c-29 0-53-23-53-52v-861c0-29 24-52 53-52h599c28 0 52 23 52 52v861c0 29-24 52-52 52z m-6-907h-588v849h162v-7c0-13 10-23 23-23h218c13 0 23 10 23 23v7h162v-849z" horiz-adv-x="1000" />
<glyph glyph-name="flask1" unicode="&#xe803;" d="m979-89l-302 513c-8 14-15 24-15 55v314c0 9 14 8 14 8 13 0 24 11 24 25 0 13-11 24-24 24h-352c-13 0-24-11-24-24 0-14 11-25 24-25 0 0 17 1 17-8v-314c0-28-7-41-15-55l-305-513c-9-14-33-61 35-61h888c68 0 44 47 35 61z m-618 492c12 20 21 31 21 76v308c0 9 4 14 13 14h216c7 0 9-5 9-12v-310c0-42 10-56 21-76l51-86c0 0 11-13-14-13-88 0-258 0-351 0-27 0-16 15-16 15l50 84z m158-425c-24 0-44 19-44 44 0 24 20 44 44 44 25 0 44-20 44-44 0-25-19-44-44-44z m165 99c-35 0-64 29-64 64s29 63 64 63 63-28 63-63-28-64-63-64z" horiz-adv-x="1000" />
<glyph glyph-name="heart258" unicode="&#xe804;" d="m375 216c-5 3-39 29-135 36-6 0-11 4-16 7-6 4-12 8-16 14-8 8-16 16-23 25-47 66-92 79-99 81-9 5-44-1-28-24 2 0 54-74 57-80 6-10 13-14 19-22 6-6 13-12 19-19 0 0-34 20-42 29-3 3-5 9-8 14-3 5-7 10-10 15-5 7-9 13-14 19-6 8-12 16-19 24-3 5-8 9-11 14-16 25 2 40 19 42 0 3-8 79-10 91-4 37-8 64-29 71-5 2-9 1-13-3-4-5-7-31-9-48 0 0-9-90-7-132 2-22 71-177 91-201 21-24 178-114 178-114 5-5 34-27 34-57v-63l169 0 0 58c1 11 2 22 4 32 3 13 1 36-1 45-20 88-92 140-100 146z m618 286c-2 17-4 43-9 48-4 4-8 5-13 3-21-7-25-34-29-71-2-12-9-88-10-91 17-2 35-17 19-42-3-5-7-9-11-14-7-8-13-16-19-24-5-6-9-12-14-19-3-5-7-10-10-15-3-5-5-10-8-14-8-9-42-29-42-29 6 7 13 13 19 19 6 8 13 12 19 22 3 6 56 80 57 80 16 23-19 29-28 24-6-2-52-15-99-81-7-9-15-17-23-25-4-6-10-10-16-14-5-3-10-7-16-7-96-7-130-33-135-36-8-6-80-58-100-146-1-9-4-32-1-44 2-11 3-22 4-33l0-58 169 0v64c0 29 29 51 35 56 0 0 157 90 177 114 20 24 90 179 91 201 2 42-7 132-7 132z m-391-200c80 76 180 169 194 253 9 59 0 108-28 144-29 38-72 59-132 66-6 0-11 0-17 0-43 0-86-16-119-42-33 26-76 42-119 42-5 0-11 0-17 0-60-7-103-28-132-66-28-36-37-85-28-144 14-84 114-177 194-253 0 0 40-40 52-50 9-8 29-24 50-24 21 0 41 16 50 24 12 10 52 50 52 50z m-204 364c-51 0-93-37-93-83 0-14-11-25-25-25-13 0-25 11-25 25 0 73 64 133 143 133 14 0 25-11 25-25s-11-25-25-25z" horiz-adv-x="1000" />
<glyph glyph-name="homework" unicode="&#xe805;" d="m735 780h-133v23c0 26-22 47-48 47h-108c-26 0-47-21-47-47v-23h-133c-61 0-110-49-110-109v-712c0-60 49-109 110-109h468c61 0 110 49 110 109v712c0 60-49 109-109 109z m-235 49c13 0 24-11 24-24 0-13-11-24-24-24s-24 11-24 24c0 13 11 24 24 24z m-128-116h256v-100h-256v100z m363-801h-469c-26 0-47 22-47 47v712c0 25 21 47 47 47h44v-112c0-30 25-55 55-55h270c30 0 55 25 55 55v112h45c25 0 46-22 46-47v-712h0c0-25-21-47-46-47z m-343 534l-11-13c-4 10-13 16-23 16h-73c-14 0-25-11-25-25v-80c0-14 11-26 25-26h73c14 0 25 12 25 26v43l33 39c6 7 5 17-2 22-6 6-16 5-22-2z m-26-102l0 0c0-5-4-9-8-9h-73c-5 0-9 4-9 9v80c0 5 4 8 9 8h73c4 0 8-3 8-8v-9l-21-25c-6-7-15-7-21-1l-13 12c-7 6-17 5-23-1-5-6-5-16 1-22l37-34c3-3 6-4 10-4 1 0 1 0 1 0 5 0 9 2 11 5l18 21c0 0 0-22 0-22z m26-68l-12-14c-4 8-13 14-22 14h-73c-14 0-25-12-25-26v-80c0-14 11-25 25-25h73c14 0 25 11 25 25v47l33 39c6 7 5 17-2 22-6 6-16 5-22-2z m-26-106l0 0c0-5-4-8-8-8h-73c-5 0-9 3-9 8v80c0 5 4 9 9 9h73c4 0 8-4 8-9v-5l-21-25c-6-7-15-7-21-1l-13 12c-7 6-17 5-23-1-5-6-5-16 1-22l37-34c3-3 6-4 10-4 1 0 1 0 1 0 5 0 9 2 11 5l18 21c0 0 0-26 0-26z m26-65l-12-15c-5 8-13 13-22 13h-73c-14 0-25-11-25-25v-80c0-14 11-26 25-26h73c14 0 25 12 25 26v48l33 39c6 7 5 17-2 22-6 6-16 5-22-2z m-26-107l0 0c0-5-4-9-8-9h-73c-5 0-9 4-9 9v80c0 5 4 8 9 8h73c4 0 8-3 8-8v-4l-21-25c-6-6-15-7-21-1l-13 12c-7 6-17 5-23-1-5-6-5-16 1-22l37-34c3-3 6-4 10-4 1 0 1 0 1 0 5 0 9 2 11 5l18 22c0 0 0-28 0-28z m364 396h-253c-9 0-16-6-16-15 0-9 7-16 16-16h253c8 0 15 7 15 16 0 9-7 15-15 15z m0-153h-253c-9 0-16-7-16-15 0-9 7-16 16-16h253c8 0 15 7 15 16 0 8-7 15-15 15z m0-153h-253c-9 0-16-7-16-15 0-9 7-16 16-16h253c8 0 15 7 15 16 0 8-7 15-15 15z" horiz-adv-x="1000" />
<glyph glyph-name="medical4" unicode="&#xe806;" d="m468 549h-97v76h-184v-76h-101l0 0c-28 0-50-22-50-50v-599c0-27 22-50 50-50h382c28 0 50 23 50 50v599c0 28-22 50-50 50z m-51-397h-94v-93h-93v93h-94v93h94v94h93v-94h94v-93z m115 480h101v75h184v-75h97c28 0 50-23 50-50v-599c0-28-22-50-50-50h-381v199h321v250h-321v126c0 28-22 51-50 51h-1v23c0 27 22 50 50 50l0 0z" horiz-adv-x="1000" />
<glyph glyph-name="medical12-1" unicode="&#xe807;" d="m679-150c-117 12-208 110-207 228 1 116 91 211 207 224v-452z m51 452v-452c115 12 206 108 207 224 1 117-90 215-207 228z m-393 355l-197-134c-39-26-65-66-73-111s0-92 27-131l9-13c32-48 86-76 144-76 34 0 68 10 97 30l198 134-205 301z m490 104l-9 13c-32 48-86 76-144 76-35 0-68-10-97-30l-198-134 205-301 197 134c79 54 100 162 46 242z" horiz-adv-x="1000" />
<glyph glyph-name="medical34" unicode="&#xe808;" d="m594 619c14 0 26-11 26-26v-23h23c15 0 27-12 27-26 0-15-12-27-27-27h-23v-23c0-14-12-26-26-26-15 0-26 12-26 26v23h-24c-14 0-26 12-26 27 0 14 12 26 26 26h24v23c0 15 11 26 26 26z m190 118v-861c0-14-11-26-26-26h-688c-15 0-26 12-26 26v861c0 14 11 26 26 26h173v61c0 14 12 26 26 26h290c14 0 26-12 26-26v-61h173c15 0 26-11 26-26z m-489-45h238v105h-238v-105z m437 19h-147v-45c0-15-12-27-26-27h-290c-14 0-26 12-26 27v45h-147v-808h636v808z m-83-302h-470c-15 0-27-12-27-27 0-14 12-26 27-26h470c15 0 27 12 27 26 0 15-12 27-27 27z m0-122h-470c-15 0-27-12-27-26 0-15 12-27 27-27h470c15 0 27 12 27 27 0 14-12 26-27 26z m0-122h-470c-15 0-27-12-27-26s12-27 27-27h470c15 0 27 12 27 27 0 14-12 26-27 26z m0-122h-470c-15 0-27-12-27-26 0-15 12-27 27-27h470c15 0 27 12 27 27 0 14-12 26-27 26z m253 406c-30 0-55-25-55-55v-423c0-21 12-38 28-47v-48c0-14 12-26 27-26 14 0 26 12 26 26v48c17 9 29 26 29 47v423c0 30-25 55-55 55z" horiz-adv-x="1000" />
<glyph glyph-name="medical85" unicode="&#xe809;" d="m410 321h-287c-21 0-38-17-38-38v-117c0-21 17-39 38-39h287c21 0 38 18 38 39v117c0 21-17 38-38 38z m123 45c0 42-14 56-37 75l0 0c-26 21-48 38-68 53-1 1-4 3-4 6v89h20v51h0c0 39-31 71-71 71h-213c-39 0-71-32-71-71 0 0 0 0 0 0v-51h21v-89c0-3-4-5-5-6-20-15-41-32-67-53l-1 0c-23-19-37-33-37-75 0-17 0-88 0-156 0-64 0-125 0-139 0-40 31-82 82-82h186c0 0 166 0 184 0 51 0 82 42 82 82l-1 139c0 68 0 139 0 156z m-81-326c-18 0-184 1-184 1h-186c-22 0-30 18-30 30 0 14 0 75 0 139 0 68 0 139 0 156 0 20 0 20 18 35l0 0c26 21 46 37 66 51 16 12 25 30 25 48v89h212v-89c0-18 9-36 25-48 19-14 40-30 65-51l1 0c17-15 18-15 18-35 0-17 0-88 0-156l0-139c0-12-8-31-30-31z m467 143l0 0-249 1c-48 0-88-40-88-88 0-49 40-88 88-88h0l248 0 1 0c45 4 81 42 81 88 0 45-36 84-81 87z m-249-145c-32 0-58 26-58 58 0 32 26 58 58 58l124 0v-116l-124 0z m3 157c0 0 0 0 0 0 6 0 13 0 19 2l0 0 238 72c23 7 41 22 52 42s14 45 7 67c-12 38-45 63-84 63-9 0-17-2-26-4l-237-72-1-1c-42-16-65-63-52-107 11-37 45-62 84-62z m215 213c5 2 11 3 17 3 25 0 48-17 55-41 5-15 3-31-4-45-7-13-20-23-34-28l-119-35-33 110 118 36z" horiz-adv-x="1000" />
<glyph glyph-name="user-plus" unicode="&#xe80a;" d="m393 350q-89 0-152 63t-62 151 62 152 152 63 151-63 63-152-63-151-151-63z m536-71h196q7 0 13-6t5-12v-107q0-8-5-13t-13-5h-196v-197q0-7-6-12t-12-6h-107q-8 0-13 6t-5 12v197h-197q-7 0-12 5t-6 13v107q0 7 6 12t12 6h197v196q0 7 5 13t13 5h107q7 0 12-5t6-13v-196z m-411-125q0-29 21-51t50-21h143v-133q-38-28-95-28h-488q-67 0-108 39t-41 106q0 30 2 58t8 61 15 60 24 55 34 45 48 30 62 11q11 0 22-10 44-34 86-51t92-17 92 17 86 51q11 10 22 10 73 0 121-54h-125q-29 0-50-21t-21-50v-107z" horiz-adv-x="1142.9" />
<glyph glyph-name="medical99" unicode="&#xe80b;" d="m954-46l-298 657c-4 8-7 22-7 30v61c0 8 7 17 15 21 21 12 35 34 35 59 0 38-31 68-68 68h-250c-37 0-68-30-68-68 0-23 12-43 30-55 7-5 13-15 13-23v-70c0-9-3-22-6-30l-302-650c-12-26-12-52 1-72 13-21 36-32 65-32h771c28 0 52 11 65 32 14 20 15 46 4 72z m-688 283l-154-319c-1-3-4-5-8-5-1 0-2 1-4 1-4 2-6 8-4 12l154 319c2 5 8 6 12 4 4-2 6-7 4-12z m462 49h-459c-8 0-12 7-9 14l137 294c3 8 5 21 5 30v120c0 10-4 17-10 17h-11c-11 0-21 10-21 21 0 12 10 21 21 21h250c12 0 21-9 21-21s-9-21-21-21c0 0-6 0-14 0s-14-7-14-17v-112c0-9 2-22 6-30l128-301c4-8-1-15-9-15z" horiz-adv-x="1000" />
<glyph glyph-name="medicine" unicode="&#xe80c;" d="m249 68c47 0 93 14 132 39-1 12-2 24-2 36 0 2 0 5 1 8 0 19 2 37 6 56 4 21 10 42 19 62 16 38 40 73 69 103 2 1 3 2 5 4l-205 204 147 147c32 33 75 50 121 50 46 0 89-17 122-50 32-32 50-75 50-121 0-46-18-89-50-122l-25-24c19 4 38 6 58 6 2 0 4 0 6 0 13 0 26-1 38-2 30 41 46 90 46 142 0 65-26 126-72 173-46 46-107 71-173 71-65 0-126-25-172-71l-294-294c-46-46-72-107-72-173 0-65 26-126 72-173 46-46 107-71 173-71z m468 367c-5 0-9 0-14 0-14 0-27-1-40-3-25-3-48-9-70-19-35-14-66-34-92-59-30-29-53-63-69-101-9-22-15-46-19-70-1-13-2-27-2-40 0-5 0-9 0-13 3-65 26-124 65-171l411 411c-47 38-106 62-170 65z m214-109l-412-411c51-41 115-65 184-65 162 0 293 131 293 293 0 69-25 133-65 183z" horiz-adv-x="1000" />
<glyph glyph-name="microscope4" unicode="&#xe80d;" d="m811 296c0 131-70 245-173 301-8 55-56 98-113 98-13 0-25-2-37-6v51c0 12-9 23-22 24v40c0 1 0 2 0 3h20c9 0 16 7 16 16v11c0 9-7 16-16 16h-126c-9 0-17-7-17-16v-11c0-9 8-16 17-16h20c-1-1-1-2-1-3v-40c-12-1-22-12-22-24v-359c0-14 11-24 24-25v-164h1c4-5 21-13 41-13 20 0 37 8 40 13h1v164c13 1 24 11 24 25v92c12-4 24-6 37-6 41 0 77 21 97 54 69-47 116-130 116-225 0-59-18-113-48-157l-82-33v3h-325v-36h325v16l62 25c-44-50-106-81-174-81v-1h-73v-84h-234v-98h510v98h-129v21c138 36 241 169 241 327z m-286 195c-50 0-90 40-90 90 0 49 40 90 90 90 39 0 72-26 85-61-11 5-22 8-33 12-12 15-31 25-52 25-37 0-66-30-66-66 0-37 29-66 66-66 22 0 42 11 54 28 8-3 15-6 22-10-16-25-44-42-76-42z" horiz-adv-x="1000" />
<glyph glyph-name="news29" unicode="&#xe80e;" d="m906 850h-687c-52 0-94-42-94-94v-62h-31c-52 0-94-42-94-94v-625c0-69 56-125 125-125h750c69 0 125 56 125 125v781c0 52-42 94-94 94z m32-875c0-34-29-63-63-63h-750c-34 0-62 29-62 63v625c0 17 14 31 31 31h31v-625c0-17 14-31 31-31s32 14 32 31v750c0 18 14 32 31 32h687c18 0 32-14 32-32v-781z m-329 469h250c9 0 16 7 16 15s-7 16-16 16h-250c-8 0-15-7-15-16s7-15 15-15z m0 93h250c9 0 16 7 16 16s-7 16-16 16h-250c-8 0-15-7-15-16s7-16 15-16z m0 94h250c9 0 16 7 16 16s-7 15-16 15h-250c-8 0-15-7-15-15s7-16 15-16z m-93-625h-250c-9 0-16-7-16-16 0-8 7-15 16-15h250c8 0 15 7 15 15 0 9-7 16-15 16z m0 94h-250c-9 0-16-7-16-16 0-8 7-15 16-15h250c8 0 15 7 15 15 0 9-7 16-15 16z m0 94h-250c-9 0-16-7-16-16 0-9 7-16 16-16h250c8 0 15 7 15 16 0 9-7 16-15 16z m343-188h-250c-8 0-15-7-15-16 0-8 7-15 15-15h250c9 0 16 7 16 15 0 9-7 16-16 16z m0 94h-250c-8 0-15-7-15-16 0-8 7-15 15-15h250c9 0 16 7 16 15 0 9-7 16-16 16z m0 94h-250c-8 0-15-7-15-16 0-9 7-16 15-16h250c9 0 16 7 16 16 0 9-7 16-16 16z m0 187h-593c-9 0-16-7-16-15s7-16 16-16h593c9 0 16 7 16 16s-7 15-16 15z m0-94h-593c-9 0-16-7-16-15 0-9 7-16 16-16h593c9 0 16 7 16 16 0 8-7 15-16 15z m-578 157h219c17 0 31 14 31 31v219c0 17-14 31-31 31h-219c-17 0-31-14-31-31v-219c0-17 14-31 31-31z m32 219h156v-157h-156v157z" horiz-adv-x="1000" />
<glyph glyph-name="operator" unicode="&#xe80f;" d="m932-70c-9 179-170 253-170 253-38 18-108 53-154 76 59 64 76 169 79 183 12 68 6 151 6 151-11 161-174 164-191 164-1 0-2 0-2 0s0 0-1 0c-16 0-181-2-192-164 0 0-6-83 6-151 1-4 3-16 7-32 31-41 78-60 117-70 5 5 12 8 19 8h71c15 0 27-13 27-28 0-15-12-27-27-27h-71c-11 0-21 7-25 17-29 7-63 19-93 40 12-31 29-64 54-91-46-23-116-58-154-76 0 0-161-74-170-253 0 0-3-29 54-41 0 0 172-39 378-39 206 0 379 39 379 39 56 12 53 41 53 41z m-680 454h17v202c0 0 0 1 0 1v30c0 53 17 96 49 128 67 65 181 64 183 64 1 0 114 2 181-64 32-31 49-75 49-128v-31c0-1 0-1 0-1v-201h17c42 0 77 35 77 77v73c0 34-23 63-53 73v10c0 65-21 118-61 157-80 78-206 76-211 76-5 0-131 2-211-76-40-40-61-93-61-157v-10c-30-10-52-39-52-73v-73c0-42 34-77 76-77z" horiz-adv-x="1000" />
<glyph glyph-name="phonereceiver" unicode="&#xe810;" d="m906 350c0-190-146-347-332-364-2 9-4 18-7 28 0 2-7 24-18 50 154 5 277 131 277 286s-123 281-277 286c11 27 18 48 18 50 3 10 5 19 7 28 186-17 332-174 332-364z m-801 219c-6-71-9-142-10-213h0c0-2 0-4 0-6 0-2 0-4 0-6h0c1-71 4-142 10-212 15-186 161-309 303-277 7 1 13 1 19 4 35 14 64 41 96 61 41 26-47 243-102 215-20-10-76-51-99-55-20-2-35 24-37 49-6 64-1 147 0 215h0c0 2 0 4 0 6 0 2 0 4 0 6h0c-1 68-6 151 0 216 2 24 17 51 37 48 23-3 79-45 99-55 54-28 143 190 102 215-32 20-61 47-96 61-6 3-12 3-19 4-142 32-288-91-303-276z m264-300h127l7 33h-81c3 4 6 7 10 10 4 3 12 7 22 14l17 10c14 9 25 17 32 24 10 11 17 23 20 37 4 18 1 32-8 43-10 11-24 16-44 16-25 0-44-9-58-27-7-10-12-23-16-39h35c3 11 6 18 9 23 6 8 14 13 25 13 9 0 14-3 18-8 3-6 4-12 2-20-2-10-8-18-17-27-6-5-19-14-38-26-23-13-38-27-46-39-8-11-13-23-16-37z m290 69h-21l24 116h-41l-92-113-7-32h74l-9-40h36l9 40h21l6 29z m-104 0l64 80-17-80h-47z" horiz-adv-x="1000" />
<glyph glyph-name="pill" unicode="&#xe811;" d="m368 178l9 46c18 89 63 211 181 282l46 28-280 171c-33 21-72 32-111 32-75 0-143-39-182-102-61-101-29-232 71-293l266-164z m-281 423c27 44 74 71 126 71 27 0 54-8 77-22l192-118c-92-73-136-174-158-250l-188 115c-70 43-92 134-49 204z m816-260l-250 153-5-2c-29-12-54-28-76-45l240-147c10-6 12-18 7-27-4-6-10-9-17-9-3 0-7 1-10 3 0 0-247 152-248 156-88-87-113-204-120-260l-1-6 267-164c32-19 69-30 106-30 72 0 137 37 174 98 59 96 29 222-67 280z" horiz-adv-x="1000" />
<glyph glyph-name="science3" unicode="&#xe812;" d="m615 850h-230c-32 0-58-26-58-58 0-24 15-45 36-53 8-4 16-11 16-21v-753c0-63 52-115 115-115h12c63 0 115 52 115 115v753c0 9 8 17 16 21 21 8 36 29 36 53 0 32-26 58-58 58z m-158-889c0-4-3-8-8-8s-8 4-8 8v471c0 4 4 8 8 8s8-4 8-8v-471z m158 819h-22c-9 0-17-5-17-11l0-11 0-254c0-9-7-17-17-17h-118c-9 0-17 8-17 17v259c0 9-7 17-16 17h-23c-7 0-13 5-13 12 0 7 6 13 13 13h230c7 0 13-6 13-13 0-7-6-12-13-12z" horiz-adv-x="1000" />
<glyph glyph-name="speechbubble96" unicode="&#xe813;" d="m734 382c0 6-2 10-6 13-4 2-13 5-27 8-25 6-41 12-50 18-8 7-12 17-12 31 0 15 5 27 16 36 11 9 26 14 45 14 18 0 32-5 43-14 12-10 18-22 19-38h-32c-1 7-4 13-10 18-6 4-14 6-24 6-8 0-14-1-19-5-5-4-7-9-7-15 0-5 2-9 7-11 5-3 15-6 31-10 23-5 38-11 46-17 8-7 12-18 12-33 0-14-6-26-18-35-11-8-27-13-47-13-20 0-36 5-47 14-11 9-17 22-18 39h32c0-8 3-14 9-19 6-4 14-7 24-7 10 0 19 2 25 5 6 4 8 9 8 15z m-251-43h16l25 125 25-125h16 16l43 158h-16-17l-26-114h0l-23 114h-18-17l-23-115-26 115h-17-17l44-158h15z m-73 15v13h-87v42h77v13 14h-77v33h83v14 14h-116v-158h120v15l0 0z m-280 143v-158h15 16v114l65-114h16 17v158h-16-15v-111l-64 111h-17-17z m854 353v-643h-106v-103h-223l-152-152v3l-105-105v254h-382v643h106v103h862z m-148-145h-672-21-21-63v-558h381v-195l63 63 21 21 22 22 89 89h2 30 30 139v60 21 21 456h0z m105 103h-777v-61h714v-498h63l0 559 0 0z" horiz-adv-x="1000" />
<glyph glyph-name="test9" unicode="&#xe814;" d="m924 6l-219 381v253c41 16 71 56 71 102 0 59-49 108-109 108h-260c-60 0-109-49-109-108 0-46 30-86 72-102v-253l-20-35v208c0 15-12 27-27 27h-240c-14 0-26-12-26-27v-568c0-72 54-130 125-140 3-1 7-2 10-2h642c46 0 81 17 98 47 18 31 15 70-8 109z m-814-14v58h79c14 0 26 12 26 27 0 14-12 26-26 26h-79v87h79c14 0 26 12 26 27 0 15-12 27-26 27h-79v86h79c14 0 26 12 26 27 0 15-12 27-26 27h-79v150h186v-542c0-49-42-88-93-88-51-1-93 39-93 88z m776-68c-8-13-27-21-52-21h-517c20 25 33 55 33 89v255c2 2 4 4 6 7l64 113c2 4 3 8 3 13v281c0 14-10 25-23 27-28 3-48 27-48 54 0 30 24 55 54 55h261c30 0 55-25 55-55 0-27-21-51-48-54-13-2-23-13-23-27v-281c0-5 1-9 3-13l224-388c12-21 15-42 8-55z m-156 167c0-52-42-94-94-94-51 0-93 42-93 94 0 52 42 93 93 93 52 0 94-41 94-93z m-209 102c0-26-20-46-46-46-25 0-45 20-45 46 0 25 20 45 45 45 26 0 46-20 46-45z m34 103c-15 0-28 13-28 29 0 16 13 28 28 28 16 0 29-12 29-28 0-16-13-29-29-29z m-82-270c0-16-13-29-29-29-16 0-29 13-29 29 0 16 13 29 29 29 16 0 29-13 29-29z m50 383c-21 0-38 17-38 38 0 21 17 38 38 38 21 0 38-17 38-38 0-21-17-38-38-38z" horiz-adv-x="1000" />
<glyph glyph-name="testtube1" unicode="&#xe815;" d="m625 517v291h42v42h-42-125-125-42v-42h42v-291c0 0-292-417-292-542s125-125 125-125h292 292c0 0 125 0 125 125s-292 542-292 542z m167-625h-292-292c-14 0-83 4-83 83 0 82 174 361 284 518l8 11v13 291h166v-291-13l8-11c110-157 284-436 284-518 0-76-64-83-83-83z m-417 157c0-23-19-42-42-42s-41 19-41 42 18 42 41 42 42-19 42-42z m249-59c0-31-25-56-56-56s-56 25-56 56 25 57 56 57 56-25 56-57z m-100 75c0-29-23-52-52-52-29 0-53 23-53 52s24 53 53 53 52-24 52-53z m-62 67c-43 0-78 35-78 78s35 78 78 78c43 0 78-35 78-78s-35-78-78-78z m117 73c0 23 19 41 42 41s41-18 41-41-18-42-41-42c-23 0-42 18-42 42z m46-100c0-15-13-27-28-27s-27 12-27 27 12 28 27 28 28-12 28-28z" horiz-adv-x="1000" />
<glyph glyph-name="umbrella18" unicode="&#xe816;" d="m934 384c-4 213-165 364-398 378v62c0 14-12 26-26 26-14 0-26-12-26-26v-61c-247-6-419-163-419-387 0-14 12-25 26-25h393v-334c0-92 75-167 167-167s168 75 168 167c0 15-12 26-26 26s-26-11-26-26c0-64-52-116-116-116s-115 52-115 116v334h372c1 0 1-1 1 0 14 0 26 11 26 25 0 3 0 5-1 8z m-817 18c13 184 167 310 382 310 216 0 369-126 383-310h-765z m490 151c0-14-12-26-26-26h-56v-56c0-14-11-25-26-25-14 0-25 11-25 25v56h-56c-14 0-26 12-26 26 0 14 12 26 26 26h56v55c0 14 11 26 25 26 15 0 26-12 26-26v-55h56c14 0 26-12 26-26z" horiz-adv-x="1000" />
<glyph glyph-name="medical4-1" unicode="&#xe817;" d="m468 549h-97v76h-184v-76h-101l0 0c-28 0-50-22-50-50v-599c0-27 22-50 50-50h382c28 0 50 23 50 50v599c0 28-22 50-50 50z m-51-397h-94v-93h-93v93h-94v93h94v94h93v-94h94v-93z m115 480h101v75h184v-75h97c28 0 50-23 50-50v-599c0-28-22-50-50-50h-381v199h321v250h-321v126c0 28-22 51-50 51h-1v23c0 27 22 50 50 50l0 0z" horiz-adv-x="1000" />
<glyph glyph-name="user" unicode="&#xe818;" d="m786 66q0-67-41-106t-108-39h-488q-67 0-108 39t-41 106q0 30 2 58t8 61 15 60 24 55 34 45 48 30 62 11q5 0 24-12t41-27 60-27 75-12 74 12 61 27 41 27 24 12q34 0 62-11t48-30 34-45 24-55 15-60 8-61 2-58z m-179 498q0-88-63-151t-151-63-152 63-62 151 62 152 152 63 151-63 63-152z" horiz-adv-x="785.7" />
<glyph glyph-name="clock" unicode="&#xe819;" d="m500 546v-250q0-7-5-12t-13-5h-178q-8 0-13 5t-5 12v36q0 8 5 13t13 5h125v196q0 8 5 13t12 5h36q8 0 13-5t5-13z m232-196q0 83-41 152t-110 111-152 41-153-41-110-111-41-152 41-152 110-111 153-41 152 41 110 111 41 152z m125 0q0-117-57-215t-156-156-215-58-216 58-155 156-58 215 58 215 155 156 216 58 215-58 156-156 57-215z" horiz-adv-x="857.1" />
<glyph glyph-name="user-md" unicode="&#xe81a;" d="m214 100q0-14-10-25t-25-11-26 11-10 25 10 25 26 11 25-11 10-25z m572-34q0-68-41-106t-108-39h-488q-67 0-108 39t-41 106q0 38 3 73t14 77 26 74 45 58 67 33q-12-29-12-67v-113q-32-11-52-39t-20-62q0-45 32-76t76-31 75 31 32 76q0 34-20 62t-52 39v113q0 35 14 52 74-58 165-58t164 58q14-17 14-52v-35q-59 0-101-42t-41-101v-50q-18-16-18-40 0-22 15-37t38-16 38 16 16 37q0 24-18 40v50q0 29 21 50t50 21 51-21 21-50v-50q-18-16-18-40 0-22 16-37t38-16 38 16 15 37q0 24-18 40v50q0 38-19 71t-52 52q0 6 0 24t0 27-1 23-4 26-7 22q38-8 67-33t45-58 26-74 14-77 3-73z m-179 498q0-88-63-151t-151-63-152 63-62 151 62 152 152 63 151-63 63-152z" horiz-adv-x="785.7" />
<glyph glyph-name="whatsapp" unicode="&#xe81b;" d="m550 306q7 0 54-24t50-30q1-2 1-8 0-18-9-42-9-22-40-37t-57-15q-32 0-106 35-55 25-95 66t-82 103q-41 60-40 108v5q2 50 41 88 14 12 29 12 4 0 10-1t11-1q11 0 15-3t8-16q5-11 19-49t14-42q0-11-19-32t-20-26q0-3 3-8 19-41 57-76 31-30 84-57 7-4 13-4 8 0 30 27t29 27z m-114-295q71 0 136 28t112 74 75 112 28 136-28 136-75 112-112 75-136 28-135-28-112-75-75-112-28-136q0-113 67-205l-44-130 135 43q88-58 192-58z m0 771q86 0 164-34t134-89 90-135 33-163-33-163-90-134-134-90-164-34q-108 0-203 53l-233-75 76 226q-60 99-60 217 0 85 33 163t90 135 134 89 163 34z" horiz-adv-x="857.1" />
<glyph glyph-name="lightbulb" unicode="&#xe81c;" d="m1 309q-2 12 7 22t22 11l90 16q14 2 26-5t13-20-7-23-24-13l-88-13q-14-2-25 5t-14 20z m2 251q-6 13 0 24t19 16 26-4l82-35q14-6 19-18t0-23-18-16-26 0l-82 39q-14 4-20 17z m160 207q2 13 14 21 10 5 22 2t21-16l49-76q7-12 5-26t-11-19-23-3-20 15l-51 76q-8 13-6 26z m57-241q17 39 49 66t75 41 94 14l4 0q51 0 94-14t75-41 50-66q43-104-15-227-22-43-47-92-14-25-25-73t-16-61q-4-12-16-14l-203 0q-12 2-18 14-29 111-39 134-25 49-47 92-58 131-15 227z m99-623q0 8 5 12t13 5l209 0q6 0 11-5t5-12l0-35q0-8-5-13t-11-5l-209 0q-18 0-18 18l0 35z m0 68l0 35q0 18 18 18l209 0q6 0 11-5t5-13l0-35q0-8-5-13t-11-4l-209 0q-8 0-13 4t-5 13z m94 754l0 90q0 16 8 25t21 10q12 0 21-10t9-25l0-90q0-14-9-23t-21-10q-13 0-21 10t-8 23z m193-53q-1 14 6 26l49 76q10 12 22 16t23-2q10-8 12-21t-6-26l-49-76q-10-12-21-15t-23 3-13 19z m118-339q2 13 12 20t25 5l90-16q13-2 22-12t7-21q-2-14-13-21t-26-4l-90 13q-14 2-22 13t-5 23z m8 187q-4 12 1 23t18 18l84 35q12 8 24 4t19-16 0-24-20-17l-82-39q-13-4-26 0t-18 16z" horiz-adv-x="881" />
</font>
</defs>
</svg>
